<?xml version="1.0" encoding="utf-8"?>
<!-- Generator: Adobe Illustrator 13.0.0, SVG Export Plug-In  -->
<!DOCTYPE svg PUBLIC "-//W3C//DTD SVG 1.1//EN" "http://www.w3.org/Graphics/SVG/1.1/DTD/svg11.dtd" [
	<!ENTITY ns_flows "http://ns.adobe.com/Flows/1.0/">
]>
<svg version="1.1"
	 xmlns="http://www.w3.org/2000/svg" xmlns:xlink="http://www.w3.org/1999/xlink" xmlns:a="http://ns.adobe.com/AdobeSVGViewerExtensions/3.0/"
	 x="0px" y="0px" width="457px" height="707px" viewBox="-0.648 -0.055 457 707" enable-background="new -0.648 -0.055 457 707"
	 xml:space="preserve">
<defs>
</defs>
<path d="M82.46,703.835c-11.455-5.389-16.368-19.048-10.979-30.502l0,0c0-0.011,1.329-2.82,3.786-8.281l0,0
	c2.445-5.473,5.981-13.485,10.218-23.513l0,0c8.475-20.083,19.808-48.279,31.109-80.505l0,0
	c22.667-64.311,44.863-145.374,44.706-207.181l0,0c0-6.6-0.235-12.96-0.736-19.037l0,0c-3.998-51.687-33.68-116.585-66.664-171.523
	l0,0C61.048,108.202,25.479,62.461,11.535,45.17l0,0c-3.99-4.95-6.102-7.442-6.113-7.454l0,0
	c-8.178-9.661-6.967-24.128,2.706-32.295l0,0c9.672-8.178,24.128-6.967,32.306,2.705l0,0c0.414,0.501,38.336,45.339,77.964,107.565
	l0,0c39.486,62.473,81.403,141.388,87.849,215.373l0,0c0.604,7.465,0.89,15.075,0.89,22.789l0,0
	c-0.154,71.918-23.963,155.472-47.283,222.351l0,0c-23.404,66.723-46.679,116.182-46.892,116.652l0,0
	c-3.906,8.304-12.148,13.166-20.751,13.166l0,0C88.939,706.022,85.616,705.317,82.46,703.835L82.46,703.835z"/>
<path d="M342.478,692.851c-0.201-0.47-23.49-49.919-46.892-116.652l0,0c-23.334-66.879-47.143-150.433-47.3-222.339l0,0
	c0-7.75,0.297-15.357,0.906-22.799l0,0c6.452-73.988,48.375-152.887,87.857-215.362l0,0C376.689,53.472,414.6,8.634,415.014,8.122
	l0,0l0.011,0.011c8.17-9.672,22.624-10.881,32.299-2.717l0,0c9.657,8.178,10.878,22.634,2.702,32.307l0,0
	c0,0.011-2.126,2.504-6.11,7.453l0,0c-3.989,4.936-9.747,12.201-16.687,21.339l0,0c-13.888,18.278-32.577,44.066-51.508,73.798l0,0
	c-38.017,59.257-76.341,135.358-80.84,194.51l0,0c-0.498,6.099-0.755,12.461-0.755,19.036l0,0
	c-0.106,54.023,16.804,122.966,36.293,182.32l0,0c19.428,59.459,41.167,109.735,49.762,128.867l0,0
	c2.445,5.473,3.771,8.281,3.788,8.293l0,0c5.389,11.454,0.471,25.102-10.989,30.502l0,0c-3.156,1.482-6.469,2.188-9.736,2.188l0,0
	C354.637,706.028,346.383,701.154,342.478,692.851L342.478,692.851z"/>
<path d="M207.821,203.555L146.225,95.76c-5.324-9.322-3.494-21.02,4.415-28.266l0,0l61.597-56.466
	c8.769-8.049,22.201-8.049,30.969,0l0,0l61.597,56.466c7.907,7.235,9.736,18.944,4.415,28.266l0,0L247.62,203.555
	c-4.062,7.104-11.711,11.541-19.897,11.541l0,0C219.542,215.096,211.884,210.658,207.821,203.555L207.821,203.555z M195.111,88.914
	l32.606,57.07l32.617-57.081l-32.611-29.895L195.111,88.914L195.111,88.914z"/>
</svg>
